# Blender v2.74 (sub 0) OBJ File: 'basicCloth2.blend'
# www.blender.org
o Plane
v 4.829200 2.287028 6.400644
v 4.829201 2.287028 -5.087010
v -6.658454 2.287028 6.400643
v -6.658453 2.287028 -5.087011
v -0.914627 2.287028 6.400644
v 4.829201 2.287028 0.656817
v -0.914626 2.287028 -5.087011
v -6.658454 2.287028 0.656816
v -0.914627 2.287028 0.656816
v 1.957286 2.287028 6.400644
v 4.829201 2.287028 -2.215097
v -3.786540 2.287028 -5.087011
v -6.658454 2.287028 3.528729
v -3.786541 2.287028 6.400644
v 4.829201 2.287028 3.528730
v 1.957287 2.287028 -5.087011
v -6.658454 2.287028 -2.215098
v -3.786541 2.287028 0.656816
v 1.957287 2.287028 0.656817
v -0.914627 2.287028 3.528730
v -0.914627 2.287028 -2.215097
v 1.957287 2.287028 -2.215097
v 1.957287 2.287028 3.528730
v -3.786541 2.287028 3.528730
v -3.786540 2.287028 -2.215097
v 3.393243 2.287028 6.400644
v 4.829201 2.287028 -3.651053
v -5.222497 2.287028 -5.087011
v -6.658454 2.287028 4.964686
v -2.350584 2.287028 6.400644
v 4.829201 2.287028 2.092774
v 0.521331 2.287028 -5.087011
v -6.658454 2.287028 -0.779141
v -5.222497 2.287028 0.656816
v 0.521330 2.287028 0.656816
v -0.914627 2.287028 4.964687
v -0.914627 2.287028 -0.779140
v 0.521330 2.287028 6.400644
v 4.829201 2.287028 -0.779140
v -2.350583 2.287028 -5.087011
v -6.658454 2.287028 2.092773
v -5.222497 2.287028 6.400643
v 4.829200 2.287028 4.964687
v 3.393244 2.287028 -5.087010
v -6.658453 2.287028 -3.651054
v -2.350584 2.287028 0.656816
v 3.393244 2.287028 0.656817
v -0.914627 2.287028 2.092773
v -0.914626 2.287028 -3.651054
v 0.521330 2.287028 -2.215097
v 3.393244 2.287028 -2.215097
v 1.957287 2.287028 -0.779140
v 1.957287 2.287028 -3.651054
v 0.521330 2.287028 3.528730
v 3.393244 2.287028 3.528730
v 1.957287 2.287028 4.964687
v 1.957287 2.287028 2.092773
v -5.222497 2.287028 3.528730
v -2.350584 2.287028 3.528730
v -3.786541 2.287028 4.964687
v -3.786541 2.287028 2.092773
v -5.222497 2.287028 -2.215097
v -2.350583 2.287028 -2.215097
v -3.786541 2.287028 -0.779141
v -3.786540 2.287028 -3.651054
v -2.350583 2.287028 -3.651054
v -2.350584 2.287028 -0.779141
v -5.222497 2.287028 -0.779141
v -2.350584 2.287028 2.092773
v -2.350584 2.287028 4.964687
v -5.222497 2.287028 4.964686
v 3.393244 2.287028 2.092773
v 3.393243 2.287028 4.964687
v 0.521330 2.287028 4.964687
v 3.393244 2.287028 -3.651053
v 3.393244 2.287028 -0.779140
v 0.521330 2.287028 -0.779140
v 0.521330 2.287028 -3.651054
v 0.521330 2.287028 2.092773
v -5.222497 2.287028 2.092773
v -5.222497 2.287028 -3.651054
vn 0.000000 1.000000 0.000000
s 1
f 28//1 4//1 45//1
f 34//1 8//1 41//1
f 79//1 35//1 9//1
f 32//1 7//1 49//1
f 50//1 21//1 37//1
f 51//1 22//1 52//1
f 44//1 16//1 53//1
f 74//1 54//1 20//1
f 73//1 55//1 23//1
f 47//1 19//1 57//1
f 58//1 13//1 29//1
f 59//1 24//1 60//1
f 69//1 46//1 18//1
f 62//1 17//1 33//1
f 63//1 25//1 64//1
f 66//1 40//1 12//1
f 66//1 65//1 25//1
f 21//1 49//1 66//1
f 49//1 7//1 40//1
f 67//1 64//1 18//1
f 37//1 67//1 46//1
f 37//1 21//1 63//1
f 68//1 33//1 8//1
f 64//1 68//1 34//1
f 64//1 25//1 62//1
f 69//1 61//1 24//1
f 20//1 48//1 69//1
f 48//1 9//1 46//1
f 70//1 60//1 14//1
f 36//1 70//1 30//1
f 20//1 59//1 70//1
f 71//1 29//1 3//1
f 60//1 71//1 42//1
f 60//1 24//1 58//1
f 72//1 57//1 23//1
f 31//1 72//1 55//1
f 6//1 47//1 72//1
f 73//1 56//1 10//1
f 43//1 73//1 26//1
f 43//1 15//1 55//1
f 74//1 36//1 5//1
f 56//1 74//1 38//1
f 23//1 54//1 74//1
f 75//1 53//1 22//1
f 11//1 27//1 75//1
f 2//1 44//1 75//1
f 76//1 52//1 19//1
f 39//1 76//1 47//1
f 11//1 51//1 76//1
f 77//1 37//1 9//1
f 52//1 77//1 35//1
f 22//1 50//1 77//1
f 50//1 78//1 49//1
f 53//1 78//1 50//1
f 16//1 32//1 78//1
f 54//1 79//1 48//1
f 57//1 79//1 54//1
f 19//1 35//1 79//1
f 80//1 41//1 13//1
f 24//1 61//1 80//1
f 18//1 34//1 80//1
f 81//1 45//1 17//1
f 65//1 81//1 62//1
f 12//1 28//1 81//1
f 81//1 28//1 45//1
f 80//1 34//1 41//1
f 48//1 79//1 9//1
f 78//1 32//1 49//1
f 77//1 50//1 37//1
f 76//1 51//1 52//1
f 75//1 44//1 53//1
f 36//1 74//1 20//1
f 56//1 73//1 23//1
f 72//1 47//1 57//1
f 71//1 58//1 29//1
f 70//1 59//1 60//1
f 61//1 69//1 18//1
f 68//1 62//1 33//1
f 67//1 63//1 64//1
f 65//1 66//1 12//1
f 63//1 66//1 25//1
f 63//1 21//1 66//1
f 66//1 49//1 40//1
f 46//1 67//1 18//1
f 9//1 37//1 46//1
f 67//1 37//1 63//1
f 34//1 68//1 8//1
f 18//1 64//1 34//1
f 68//1 64//1 62//1
f 59//1 69//1 24//1
f 59//1 20//1 69//1
f 69//1 48//1 46//1
f 30//1 70//1 14//1
f 5//1 36//1 30//1
f 36//1 20//1 70//1
f 42//1 71//1 3//1
f 14//1 60//1 42//1
f 71//1 60//1 58//1
f 55//1 72//1 23//1
f 15//1 31//1 55//1
f 31//1 6//1 72//1
f 26//1 73//1 10//1
f 1//1 43//1 26//1
f 73//1 43//1 55//1
f 38//1 74//1 5//1
f 10//1 56//1 38//1
f 56//1 23//1 74//1
f 51//1 75//1 22//1
f 51//1 11//1 75//1
f 27//1 2//1 75//1
f 47//1 76//1 19//1
f 6//1 39//1 47//1
f 39//1 11//1 76//1
f 35//1 77//1 9//1
f 19//1 52//1 35//1
f 52//1 22//1 77//1
f 21//1 50//1 49//1
f 22//1 53//1 50//1
f 53//1 16//1 78//1
f 20//1 54//1 48//1
f 23//1 57//1 54//1
f 57//1 19//1 79//1
f 58//1 80//1 13//1
f 58//1 24//1 80//1
f 61//1 18//1 80//1
f 62//1 81//1 17//1
f 25//1 65//1 62//1
f 65//1 12//1 81//1
