# Blender v2.74 (sub 0) OBJ File: 'basicCloth2.blend'
# www.blender.org
o Cube
v -0.311576 -1.898465 -0.569387
v 2.140830 -1.898465 -0.569386
v 2.140830 -1.898465 1.883020
v -0.311577 -1.898465 1.883019
v -0.311575 0.553941 -0.569387
v 2.140831 0.553941 -0.569386
v 2.140829 0.553941 1.883020
v -0.311576 0.553941 1.883019
vn 0.000000 -1.000000 0.000000
vn 0.000000 1.000000 -0.000000
vn 0.000000 0.000000 -1.000000
vn 1.000000 -0.000000 0.000000
vn -0.000000 -0.000000 1.000000
vn -1.000000 0.000000 -0.000000
s off
f 1//1 2//1 3//1
f 5//2 8//2 7//2
f 5//3 6//3 2//3
f 6//4 7//4 3//4
f 3//5 7//5 8//5
f 1//6 4//6 8//6
f 4//1 1//1 3//1
f 6//2 5//2 7//2
f 1//3 5//3 2//3
f 2//4 6//4 3//4
f 4//5 3//5 8//5
f 5//6 1//6 8//6
